Coordinates
version=1
nRows=10
nColumns=40
inDegrees=yes

Units are S.I. units (second, meters, Newtons, ...)
Angles are in degrees.

endheader
time	pelvis_tilt	pelvis_list	pelvis_rotation	pelvis_tx	pelvis_ty	pelvis_tz	hip_flexion_r	hip_adduction_r	hip_rotation_r	knee_angle_r	knee_angle_r_beta	ankle_angle_r	subtalar_angle_r	mtp_angle_r	hip_flexion_l	hip_adduction_l	hip_rotation_l	knee_angle_l	knee_angle_l_beta	ankle_angle_l	subtalar_angle_l	mtp_angle_l	lumbar_extension	lumbar_bending	lumbar_rotation	arm_flex_r	arm_add_r	arm_rot_r	elbow_flex_r	pro_sup_r	wrist_flex_r	wrist_dev_r	arm_flex_l	arm_add_l	arm_rot_l	elbow_flex_l	pro_sup_l	wrist_flex_l	wrist_dev_l
      4.92500019	    -22.35345387	      6.02967409	     -7.49327903	     -2.91500077	      0.91856181	      0.30647478	     -7.72140986	     -8.39314537	      5.06162059	     17.11798838	     17.11798838	    -23.34084613	      0.00000000	      0.00000000	     80.94257540	     -7.37523296	     -1.75354815	     92.50629875	     92.50629875	      8.60532537	      0.00000000	      0.00000000	    -20.24947693	    -11.99841386	     -1.90649600	     77.21238847	    -15.31664740	      4.86209216	    132.08830037	     29.01637953	      0.00000000	      0.00000000	    -75.74104881	    -11.53819829	    -39.79646004	     77.04910751	     86.30931309	      0.00000000	      0.00000000
      4.93000019	    -21.95210898	      6.01097520	     -6.35619162	     -2.88293222	      0.92273382	      0.30682253	     -9.04083957	     -8.04613674	      5.30408893	     17.82149602	     17.82149602	    -26.87281205	      0.00000000	      0.00000000	     80.14619971	     -6.83518569	     -2.55492510	     88.32638734	     88.32638734	      8.23134668	      0.00000000	      0.00000000	    -20.77046884	    -12.20095999	     -3.16728989	     74.00230203	    -15.76869121	      5.07920912	    133.13330148	     29.14451306	      0.00000000	      0.00000000	    -74.91016149	    -11.42315242	    -40.07860548	     77.69793469	     86.15664603	      0.00000000	      0.00000000
      4.93500019	    -21.41354231	      5.92638190	     -5.43396226	     -2.85097258	      0.92757025	      0.30734471	    -10.11076365	     -7.56552371	      5.73798203	     19.12999661	     19.12999661	    -29.63763321	      0.00000000	      0.00000000	     78.89278576	     -6.48134351	     -3.44373368	     84.01243963	     84.01243963	      7.79721189	      0.00000000	      0.00000000	    -21.52565178	    -12.35548051	     -4.15749789	     70.41983469	    -16.21975527	      5.24381140	    133.72520172	     29.24476444	      0.00000000	      0.00000000	    -73.61225255	    -11.56201706	    -40.12787200	     78.36509529	     85.99181378	      0.00000000	      0.00000000
      4.94000019	    -20.75539107	      5.79026851	     -4.71947712	     -2.81915003	      0.93293773	      0.30803210	    -10.90513372	     -6.98169323	      6.26317431	     21.07849943	     21.07849943	    -31.57708981	      0.00000000	      0.00000000	     77.23742994	     -6.29578761	     -4.40544920	     79.61440905	     79.61440905	      7.29306244	      0.00000000	      0.00000000	    -22.48407266	    -12.47008496	     -4.85068146	     66.54639488	    -16.65432136	      5.24406689	    133.75259491	     30.17220042	      0.00000000	      0.00000000	    -71.89285939	    -11.98107628	    -39.88342063	     79.10388276	     85.01317627	      0.00000000	      0.00000000
      4.94500019	    -20.00976964	      5.62534483	     -4.18360109	     -2.78749520	      0.93867098	      0.30883206	    -11.39276984	     -6.33569186	      6.74308387	     23.68433794	     23.68433794	    -32.69125783	      0.00000000	      0.00000000	     75.25226129	     -6.23612173	     -5.43452812	     75.18022873	     75.18022873	      6.70538227	      0.00000000	      0.00000000	    -23.60038569	    -12.55974724	     -5.25538261	     62.45001258	    -17.05429230	      5.02680101	    133.32120051	     30.29961159	      0.00000000	      0.00000000	    -69.78175941	    -12.68460341	    -39.39448495	     79.88951267	     84.08057660	      0.00000000	      0.00000000
      4.95000019	    -19.22309035	      5.45663424	     -3.78256534	     -2.75604382	      0.94457360	      0.30966606	    -11.53992008	     -5.67354854	      7.04795273	     26.93310918	     26.93310918	    -33.04758988	      0.00000000	      0.00000000	     73.02639404	     -6.24503455	     -6.52370686	     70.75828707	     70.75828707	      6.01827212	      0.00000000	      0.00000000	    -24.81333838	    -12.63899020	     -5.40069887	     58.20641653	    -17.38727739	      4.49607827	    132.35589075	     30.48644499	      0.00000000	      0.00000000	    -67.32244733	    -13.65980647	    -38.62677279	     80.75440227	     82.68080553	      0.00000000	      0.00000000
      4.95500019	    -18.44830213	      5.30213092	     -3.46500611	     -2.72482603	      0.95043411	      0.31045051	    -11.32407133	     -5.03425705	      7.09534224	     30.76123437	     30.76123437	    -32.78561311	      0.00000000	      0.00000000	     70.65845481	     -6.26264915	     -7.65373207	     66.40258228	     66.40258228	      5.21892299	      0.00000000	      0.00000000	    -26.05418214	    -12.71339647	     -5.33269753	     53.88164388	    -17.62064684	      3.61276305	    130.89642318	     30.38999420	      0.00000000	      0.00000000	    -64.52789621	    -14.87929698	    -37.68305538	     81.60981857	     82.59155237	      0.00000000	      0.00000000
      4.96000019	    -17.73339297	      5.16568980	     -3.17594815	     -2.69385064	      0.95605230	      0.31110891	    -10.74745089	     -4.43780129	      6.86148466	     35.05383758	     35.05383758	    -32.09992927	      0.00000000	      0.00000000	     68.24456989	     -6.23721838	     -8.78867495	     62.17763524	     62.17763524	      4.30296501	      0.00000000	      0.00000000	    -27.25617480	    -12.77156232	     -5.09410046	     49.53658848	    -17.73443165	      2.34530329	    128.93056311	     30.57171307	      0.00000000	      0.00000000	    -61.49649652	    -16.28627564	    -36.18537466	     82.80080543	     77.05007592	      0.00000000	      0.00000000
      4.96500019	    -17.11192364	      5.03728897	     -2.86176356	     -2.66309754	      0.96126363	      0.31158054	     -9.83918817	     -3.88257420	      6.36584754	     39.66567556	     39.66567556	    -31.19471841	      0.00000000	      0.00000000	     65.86648592	     -6.13369219	     -9.88171301	     58.15980617	     58.15980617	      3.28209960	      0.00000000	      0.00000000	    -28.37089241	    -12.78807593	     -4.73893040	     45.22414750	    -17.70417357	      0.72322384	    126.56311100	     30.27962386	      0.00000000	      0.00000000	    -58.17585446	    -17.83909150	    -34.46467250	     84.04023957	     71.57805835	      0.00000000	      0.00000000
      4.97000019	    -16.60039414	      4.89946249	     -2.47374337	     -2.63252371	      0.96594955	      0.31181924	     -8.64553328	     -3.35325971	      5.64313290	     44.45264795	     44.45264795	    -30.23332272	      0.00000000	      0.00000000	     63.58537762	     -5.93492062	    -10.88483839	     54.43203273	     54.43203273	      2.18202591	      0.00000000	      0.00000000	    -29.36627619	    -12.73033825	     -4.30793332	     40.99112805	    -17.52236713	     -1.24268373	    123.79369361	     30.21587036	      0.00000000	      0.00000000	    -54.58849045	    -19.47674406	    -32.42694062	     85.43967183	     64.04106704	      0.00000000	      0.00000000
